<svg xmlns="http://www.w3.org/2000/svg" xmlns:xlink="http://www.w3.org/1999/xlink" width="397" zoomAndPan="magnify" viewBox="0 0 297.75 73.499998" height="98" preserveAspectRatio="xMidYMid meet" version="1.0"><defs><g/><clipPath id="29cfa2eef9"><path d="M 13 1.625 L 77.605469 1.625 L 77.605469 61 L 13 61 Z M 13 1.625 " clip-rule="nonzero"/></clipPath><clipPath id="a1442174d5"><path d="M 1.691406 13 L 23 13 L 23 48 L 1.691406 48 Z M 1.691406 13 " clip-rule="nonzero"/></clipPath></defs><g clip-path="url(#29cfa2eef9)"><path fill="#202020" d="M 15.5 50.511719 L 53.894531 50.511719 C 55.675781 50.511719 57.183594 49.183594 57.425781 47.433594 L 62.105469 12.3125 C 62.105469 12.3125 62.105469 12.3125 62.105469 12.296875 C 62.890625 6.214844 68.113281 1.609375 74.253906 1.609375 L 75.175781 1.609375 C 76.429688 1.609375 77.441406 2.621094 77.441406 3.875 C 77.441406 5.125 76.429688 6.136719 75.175781 6.136719 L 74.253906 6.136719 C 70.375 6.136719 67.085938 9.035156 66.589844 12.882812 C 66.589844 12.882812 66.589844 12.882812 66.589844 12.898438 L 61.910156 48.019531 C 61.382812 52.019531 57.941406 55.039062 53.894531 55.039062 L 52.535156 55.039062 C 52.492188 58.328125 49.835938 60.984375 46.53125 60.984375 C 43.222656 60.984375 40.566406 58.328125 40.523438 55.039062 L 31.136719 55.039062 C 31.089844 58.328125 28.433594 60.984375 25.128906 60.984375 C 21.824219 60.984375 19.167969 58.328125 19.121094 55.039062 L 15.5 55.039062 C 14.246094 55.039062 13.234375 54.027344 13.234375 52.773438 C 13.234375 51.523438 14.246094 50.511719 15.5 50.511719 Z M 15.5 50.511719 " fill-opacity="1" fill-rule="nonzero"/></g><path fill="#b2935b" d="M 29.050781 12.007812 L 36.523438 11.101562 C 39.375 15.660156 45.5625 23.511719 56.519531 28.1875 L 54.4375 43.75 C 38.96875 34.828125 31.480469 18.394531 29.050781 12.007812 Z M 29.050781 12.007812 " fill-opacity="1" fill-rule="nonzero"/><path fill="#ffe5b6" d="M 24.417969 12.566406 C 26.546875 18.636719 34.199219 37.140625 51.511719 47.339844 L 27.753906 47.339844 C 19.785156 33.410156 17.824219 18.183594 17.371094 13.414062 Z M 24.417969 12.566406 " fill-opacity="1" fill-rule="nonzero"/><path fill="#473c38" d="M 57.15625 23.511719 C 49.277344 19.84375 44.3125 14.394531 41.5625 10.5 L 56.28125 8.734375 C 56.972656 8.644531 57.667969 8.898438 58.167969 9.398438 C 58.664062 9.894531 58.890625 10.589844 58.800781 11.285156 Z M 57.15625 23.511719 " fill-opacity="1" fill-rule="nonzero"/><g clip-path="url(#a1442174d5)"><path fill="#a44f30" d="M 2.414062 15.886719 C 2.789062 15.40625 3.332031 15.101562 3.9375 15.027344 L 12.886719 13.957031 C 13.339844 19.011719 15.195312 33.394531 22.578125 47.339844 L 13.25 47.339844 C 9.085938 47.339844 5.523438 44.234375 4.980469 40.097656 L 1.992188 17.578125 C 1.871094 16.976562 2.035156 16.371094 2.414062 15.886719 Z M 2.414062 15.886719 " fill-opacity="1" fill-rule="nonzero"/></g><g fill="#202020" fill-opacity="1"><g transform="translate(83.229576, 46.476344)"><g><path d="M 1.023438 0 L 13.292969 0 L 13.292969 -17.042969 L 17.964844 -17.042969 L 17.964844 0 L 30.234375 0 L 30.234375 -34.089844 L 17.964844 -34.089844 L 17.964844 -18.238281 L 13.292969 -18.238281 L 13.292969 -34.089844 L 1.023438 -34.089844 Z M 1.023438 0 "/></g></g></g><g fill="#202020" fill-opacity="1"><g transform="translate(114.481476, 46.476344)"><g><path d="M 1.023438 0 L 13.292969 0 L 13.292969 -17.042969 L 17.964844 -17.042969 L 17.964844 0 L 30.234375 0 L 30.234375 -34.089844 L 17.964844 -34.089844 L 17.964844 -18.238281 L 13.292969 -18.238281 L 13.292969 -34.089844 L 1.023438 -34.089844 Z M 1.023438 0 "/></g></g></g><g fill="#202020" fill-opacity="1"><g transform="translate(145.733376, 46.476344)"><g/></g></g><g fill="#202020" fill-opacity="1"><g transform="translate(155.957554, 46.476344)"><g><path d="M 0.511719 -11.078125 C 0.511719 -3.304688 7.636719 0.714844 14.828125 0.683594 C 24.339844 0.648438 28.941406 -4.535156 28.941406 -11.214844 C 28.941406 -26.792969 4.671875 -25.15625 4.671875 -31.601562 C 4.671875 -31.941406 5.011719 -32.621094 5.453125 -32.621094 C 10.023438 -32.621094 15.679688 -26.246094 22.089844 -26.246094 C 24.371094 -26.246094 27.953125 -28.292969 27.953125 -31.734375 C 27.953125 -32.621094 27.714844 -33.339844 27.304688 -34.089844 L 5.113281 -34.089844 C 2.964844 -34.089844 0.953125 -30.644531 0.953125 -27.882812 C 0.953125 -23.929688 3 -20.929688 5.898438 -18.511719 C 2.761719 -17.316406 0.511719 -14.25 0.511719 -11.078125 Z M 24.542969 -5.046875 C 24.542969 -3.613281 23.214844 -2.386719 21.238281 -2.386719 C 14.042969 -2.386719 6.988281 -13.226562 6.851562 -17.761719 C 13.839844 -12.441406 24.542969 -9.816406 24.542969 -5.046875 Z M 24.542969 -5.046875 "/></g></g></g><g fill="#202020" fill-opacity="1"><g transform="translate(185.403185, 46.476344)"><g><path d="M 1.433594 -24.03125 L 1.433594 -8.625 C 1.433594 -2.386719 4.296875 0.683594 9.648438 0.683594 C 11.828125 0.683594 13.667969 -0.308594 14.691406 -1.398438 C 13.601562 -2.488281 13.125 -4.535156 13.125 -6.441406 L 13.125 -24.03125 L 14.964844 -24.03125 L 14.964844 -25.394531 L 13.125 -25.394531 L 13.125 -34.089844 L 12.78125 -34.089844 C 10.941406 -31.121094 4.160156 -26.519531 -0.339844 -25.363281 L -0.339844 -24.03125 Z M 1.433594 -24.03125 "/></g></g></g><g fill="#202020" fill-opacity="1"><g transform="translate(200.364565, 46.476344)"><g><path d="M 0.511719 -12.714844 C 0.511719 -4.671875 5.726562 0.683594 13.53125 0.683594 C 21.375 0.683594 26.589844 -4.671875 26.589844 -12.714844 C 26.589844 -20.726562 21.375 -26.078125 13.53125 -26.078125 C 5.726562 -26.078125 0.511719 -20.726562 0.511719 -12.714844 Z M 13.566406 -24.988281 C 14.316406 -24.988281 14.929688 -24.269531 14.929688 -21.78125 C 14.929688 -21.238281 14.929688 -13.328125 14.929688 -12.714844 C 14.929688 -12.101562 14.929688 -4.191406 14.929688 -3.648438 C 14.929688 -1.160156 14.316406 -0.441406 13.566406 -0.441406 C 12.816406 -0.441406 12.203125 -1.160156 12.203125 -3.648438 C 12.203125 -4.191406 12.203125 -12.101562 12.203125 -12.714844 C 12.203125 -13.328125 12.203125 -21.238281 12.203125 -21.78125 C 12.203125 -24.269531 12.816406 -24.988281 13.566406 -24.988281 Z M 13.566406 -24.988281 "/></g></g></g><g fill="#202020" fill-opacity="1"><g transform="translate(227.458627, 46.476344)"><g><path d="M 1.023438 0 L 13.292969 0 L 13.292969 -15.101562 C 13.292969 -16.054688 14.113281 -17.042969 15.511719 -17.042969 C 18.613281 -17.042969 20.65625 -12.511719 20.65625 -8.660156 L 21 -8.660156 L 25.464844 -24.238281 C 25.054688 -25.15625 23.28125 -26.078125 21.542969 -26.078125 C 16.667969 -26.078125 13.292969 -21.269531 13.292969 -17.042969 L 13.292969 -25.394531 L 1.023438 -25.394531 Z M 1.023438 0 "/></g></g></g><g fill="#202020" fill-opacity="1"><g transform="translate(252.916819, 46.476344)"><g><path d="M 15.03125 0.683594 C 25.738281 0.683594 26.894531 -7.875 24.167969 -8.792969 C 23.964844 -7.054688 20.863281 -4.804688 18.714844 -4.804688 C 15.578125 -4.804688 13.601562 -6.304688 12.613281 -8.929688 C 13.839844 -8.453125 15.203125 -8.148438 16.53125 -8.148438 C 20.757812 -8.148438 25.019531 -11.386719 25.019531 -16.566406 C 25.019531 -23.453125 19.53125 -26.113281 13.90625 -26.113281 C 5.863281 -26.113281 0.511719 -20.757812 0.511719 -12.714844 C 0.511719 -4.671875 6.613281 0.683594 15.03125 0.683594 Z M 12.203125 -10.328125 C 11.964844 -11.488281 11.828125 -12.75 11.828125 -14.179688 C 11.828125 -19.191406 12.816406 -24.269531 14.761719 -24.269531 C 15.441406 -24.269531 16.15625 -23.316406 16.15625 -20.792969 C 16.15625 -16.601562 14.523438 -11.726562 12.203125 -10.328125 Z M 12.203125 -10.328125 "/></g></g></g></svg>